#Comment line ignore any data following # character 
#Hierarchical Translation and Rotation (.htr) file 
[Header]	
#Header keywords are followed by a single value 
FileType HTR		#Single word string
DataType HTRS		#Translation followed by rotation and scale data
FileVersion 1		#integer
NumSegments 84		#integer
NumFrames 2		#integer
DataFrameRate 30		#integer, data frame rate in this file
EulerRotationOrder ZYX
CalibrationUnits mm
RotationUnits Degrees
GlobalAxisofGravity Y
BoneLengthAxis Y
ScaleFactor 1.00
[SegmentNames&Hierarchy]
#CHILD	PARENT
MASTER GLOBAL
root MASTER
chest root
L_mid_tent01 root
R_mid_tent01 root
spine01 root
Bip01_Neck chest
L_humerus chest
R_humerus chest
weapon_bone chest
Bip01_Head Bip01_Neck
eye_left_bone Bip01_Head
eye_right_bone Bip01_Head
L_forearm L_humerus
L_front_hand L_forearm
L_weapon_bone L_forearm
L_front_hand01_01 L_front_hand
L_front_hand02_01 L_front_hand
L_front_hand03_01 L_front_hand
L_front_hand01_02 L_front_hand01_01
L_front_hand02_02 L_front_hand02_01
L_front_hand03_02 L_front_hand03_01
R_forearm R_humerus
R_front_hand R_forearm
R_weapon_bone R_forearm
R_front_hand01_01 R_front_hand
R_front_hand02_01 R_front_hand
R_front_hand03_01 R_front_hand
R_front_hand01_02 R_front_hand01_01
R_front_hand02_02 R_front_hand02_01
R_front_hand03_02 R_front_hand03_01
null_rope01_connect L_mid_tent01
Rope1_Seg01 null_rope01_connect
Rope1_Seg02 Rope1_Seg01
Rope1_Seg03 Rope1_Seg02
Rope1_Seg04 Rope1_Seg03
Rope1_Seg05 Rope1_Seg04
Rope1_Seg06 Rope1_Seg05
Rope1_Seg07 Rope1_Seg06
Rope1_Seg09 Rope1_Seg07
L_mid_hand01 Rope1_Seg09
L_mid_hand02 Rope1_Seg09
L_mid_hand03 Rope1_Seg09
null_rope02_connect R_mid_tent01
Rope2_Seg01 null_rope02_connect
Rope2_Seg02 Rope2_Seg01
Rope2_Seg03 Rope2_Seg02
Rope2_Seg04 Rope2_Seg03
Rope2_Seg05 Rope2_Seg04
Rope2_Seg06 Rope2_Seg05
Rope2_Seg07 Rope2_Seg06
Rope2_Seg09 Rope2_Seg07
R_mid_hand01 Rope2_Seg09
R_mid_hand02 Rope2_Seg09
R_mid_hand03 Rope2_Seg09
spine02 spine01
spine03 spine02
pelvis spine03
null_rope03_connect pelvis
null_rope04_connect pelvis
Rope3_Seg01 null_rope03_connect
Rope3_Seg02 Rope3_Seg01
Rope3_Seg03 Rope3_Seg02
Rope3_Seg04 Rope3_Seg03
Rope3_Seg05 Rope3_Seg04
Rope3_Seg06 Rope3_Seg05
Rope3_Seg07 Rope3_Seg06
Rope3_Seg08 Rope3_Seg07
Rope3_Seg09 Rope3_Seg08
R_rear_hand01 Rope3_Seg09
R_rear_hand02 Rope3_Seg09
R_rear_hand03 Rope3_Seg09
Rope4_Seg01 null_rope04_connect
Rope4_Seg02 Rope4_Seg01
Rope4_Seg03 Rope4_Seg02
Rope4_Seg04 Rope4_Seg03
Rope4_Seg05 Rope4_Seg04
Rope4_Seg06 Rope4_Seg05
Rope4_Seg07 Rope4_Seg06
Rope4_Seg08 Rope4_Seg07
Rope4_Seg09 Rope4_Seg08
L_rear_hand01 Rope4_Seg09
L_rear_hand02 Rope4_Seg09
L_rear_hand03 Rope4_Seg09
[BasePosition]
#SegmentName Tx, Ty, Tz, Rx, Ry, Rz, BoneLength
MASTER 0.000000 0.000000 0.000000 -90.000000 0.000000 0.000000 10.000000 
root 0.000000 0.000000 0.000000 0.000000 0.000000 0.000000 10.000000 
chest 0.000000 0.000000 0.000000 0.000000 0.000000 0.000000 10.000000 
L_mid_tent01 0.000000 0.000000 0.000000 0.000000 0.000000 0.000000 10.000000 
R_mid_tent01 0.000000 0.000000 0.000000 0.000000 0.000000 0.000000 10.000000 
spine01 0.000000 0.000000 0.000000 0.000000 0.000000 0.000000 10.000000 
Bip01_Neck 0.000000 0.000000 0.000000 0.000000 0.000000 0.000000 10.000000 
L_humerus 0.000000 0.000000 0.000000 0.000000 0.000000 0.000000 10.000000 
R_humerus 0.000000 0.000000 0.000000 0.000000 0.000000 0.000000 10.000000 
weapon_bone 0.000000 0.000000 0.000000 0.000000 0.000000 0.000000 10.000000 
Bip01_Head 0.000000 0.000000 0.000000 0.000000 0.000000 0.000000 10.000000 
eye_left_bone 0.000000 0.000000 0.000000 0.000000 0.000000 0.000000 10.000000 
eye_right_bone 0.000000 0.000000 0.000000 0.000000 0.000000 0.000000 10.000000 
L_forearm 0.000000 0.000000 0.000000 0.000000 0.000000 0.000000 10.000000 
L_front_hand 0.000000 0.000000 0.000000 0.000000 0.000000 0.000000 10.000000 
L_weapon_bone 0.000000 0.000000 0.000000 0.000000 0.000000 0.000000 10.000000 
L_front_hand01_01 0.000000 0.000000 0.000000 0.000000 0.000000 0.000000 10.000000 
L_front_hand02_01 0.000000 0.000000 0.000000 0.000000 0.000000 0.000000 10.000000 
L_front_hand03_01 0.000000 0.000000 0.000000 0.000000 0.000000 0.000000 10.000000 
L_front_hand01_02 0.000000 0.000000 0.000000 0.000000 0.000000 0.000000 10.000000 
L_front_hand02_02 0.000000 0.000000 0.000000 0.000000 0.000000 0.000000 10.000000 
L_front_hand03_02 0.000000 0.000000 0.000000 0.000000 0.000000 0.000000 10.000000 
R_forearm 0.000000 0.000000 0.000000 0.000000 0.000000 0.000000 10.000000 
R_front_hand 0.000000 0.000000 0.000000 0.000000 0.000000 0.000000 10.000000 
R_weapon_bone 0.000000 0.000000 0.000000 0.000000 0.000000 0.000000 10.000000 
R_front_hand01_01 0.000000 0.000000 0.000000 0.000000 0.000000 0.000000 10.000000 
R_front_hand02_01 0.000000 0.000000 0.000000 0.000000 0.000000 0.000000 10.000000 
R_front_hand03_01 0.000000 0.000000 0.000000 0.000000 0.000000 0.000000 10.000000 
R_front_hand01_02 0.000000 0.000000 0.000000 0.000000 0.000000 0.000000 10.000000 
R_front_hand02_02 0.000000 0.000000 0.000000 0.000000 0.000000 0.000000 10.000000 
R_front_hand03_02 0.000000 0.000000 0.000000 0.000000 0.000000 0.000000 10.000000 
null_rope01_connect 0.000000 0.000000 0.000000 0.000000 0.000000 0.000000 10.000000 
Rope1_Seg01 0.000000 0.000000 0.000000 0.000000 0.000000 0.000000 10.000000 
Rope1_Seg02 0.000000 0.000000 0.000000 0.000000 0.000000 0.000000 10.000000 
Rope1_Seg03 0.000000 0.000000 0.000000 0.000000 0.000000 0.000000 10.000000 
Rope1_Seg04 0.000000 0.000000 0.000000 0.000000 0.000000 0.000000 10.000000 
Rope1_Seg05 0.000000 0.000000 0.000000 0.000000 0.000000 0.000000 10.000000 
Rope1_Seg06 0.000000 0.000000 0.000000 0.000000 0.000000 0.000000 10.000000 
Rope1_Seg07 0.000000 0.000000 0.000000 0.000000 0.000000 0.000000 10.000000 
Rope1_Seg09 0.000000 0.000000 0.000000 0.000000 0.000000 0.000000 10.000000 
L_mid_hand01 0.000000 0.000000 0.000000 0.000000 0.000000 0.000000 10.000000 
L_mid_hand02 0.000000 0.000000 0.000000 0.000000 0.000000 0.000000 10.000000 
L_mid_hand03 0.000000 0.000000 0.000000 0.000000 0.000000 0.000000 10.000000 
null_rope02_connect 0.000000 0.000000 0.000000 0.000000 0.000000 0.000000 10.000000 
Rope2_Seg01 0.000000 0.000000 0.000000 0.000000 0.000000 0.000000 10.000000 
Rope2_Seg02 0.000000 0.000000 0.000000 0.000000 0.000000 0.000000 10.000000 
Rope2_Seg03 0.000000 0.000000 0.000000 0.000000 0.000000 0.000000 10.000000 
Rope2_Seg04 0.000000 0.000000 0.000000 0.000000 0.000000 0.000000 10.000000 
Rope2_Seg05 0.000000 0.000000 0.000000 0.000000 0.000000 0.000000 10.000000 
Rope2_Seg06 0.000000 0.000000 0.000000 0.000000 0.000000 0.000000 10.000000 
Rope2_Seg07 0.000000 0.000000 0.000000 0.000000 0.000000 0.000000 10.000000 
Rope2_Seg09 0.000000 0.000000 0.000000 0.000000 0.000000 0.000000 10.000000 
R_mid_hand01 0.000000 0.000000 0.000000 0.000000 0.000000 0.000000 10.000000 
R_mid_hand02 0.000000 0.000000 0.000000 0.000000 0.000000 0.000000 10.000000 
R_mid_hand03 0.000000 0.000000 0.000000 0.000000 0.000000 0.000000 10.000000 
spine02 0.000000 0.000000 0.000000 0.000000 0.000000 0.000000 10.000000 
spine03 0.000000 0.000000 0.000000 0.000000 0.000000 0.000000 10.000000 
pelvis 0.000000 0.000000 0.000000 0.000000 0.000000 0.000000 10.000000 
null_rope03_connect 0.000000 0.000000 0.000000 0.000000 0.000000 0.000000 10.000000 
null_rope04_connect 0.000000 0.000000 0.000000 0.000000 0.000000 0.000000 10.000000 
Rope3_Seg01 0.000000 0.000000 0.000000 0.000000 0.000000 0.000000 10.000000 
Rope3_Seg02 0.000000 0.000000 0.000000 0.000000 0.000000 0.000000 10.000000 
Rope3_Seg03 0.000000 0.000000 0.000000 0.000000 0.000000 0.000000 10.000000 
Rope3_Seg04 0.000000 0.000000 0.000000 0.000000 0.000000 0.000000 10.000000 
Rope3_Seg05 0.000000 0.000000 0.000000 0.000000 0.000000 0.000000 10.000000 
Rope3_Seg06 0.000000 0.000000 0.000000 0.000000 0.000000 0.000000 10.000000 
Rope3_Seg07 0.000000 0.000000 0.000000 0.000000 0.000000 0.000000 10.000000 
Rope3_Seg08 0.000000 0.000000 0.000000 0.000000 0.000000 0.000000 10.000000 
Rope3_Seg09 0.000000 0.000000 0.000000 0.000000 0.000000 0.000000 10.000000 
R_rear_hand01 0.000000 0.000000 0.000000 0.000000 0.000000 0.000000 10.000000 
R_rear_hand02 0.000000 0.000000 0.000000 0.000000 0.000000 0.000000 10.000000 
R_rear_hand03 0.000000 0.000000 0.000000 0.000000 0.000000 0.000000 10.000000 
Rope4_Seg01 0.000000 0.000000 0.000000 0.000000 0.000000 0.000000 10.000000 
Rope4_Seg02 0.000000 0.000000 0.000000 0.000000 0.000000 0.000000 10.000000 
Rope4_Seg03 0.000000 0.000000 0.000000 0.000000 0.000000 0.000000 10.000000 
Rope4_Seg04 0.000000 0.000000 0.000000 0.000000 0.000000 0.000000 10.000000 
Rope4_Seg05 0.000000 0.000000 0.000000 0.000000 0.000000 0.000000 10.000000 
Rope4_Seg06 0.000000 0.000000 0.000000 0.000000 0.000000 0.000000 10.000000 
Rope4_Seg07 0.000000 0.000000 0.000000 0.000000 0.000000 0.000000 10.000000 
Rope4_Seg08 0.000000 0.000000 0.000000 0.000000 0.000000 0.000000 10.000000 
Rope4_Seg09 0.000000 0.000000 0.000000 0.000000 0.000000 0.000000 10.000000 
L_rear_hand01 0.000000 0.000000 0.000000 0.000000 0.000000 0.000000 10.000000 
L_rear_hand02 0.000000 0.000000 0.000000 0.000000 0.000000 0.000000 10.000000 
L_rear_hand03 0.000000 0.000000 0.000000 0.000000 0.000000 0.000000 10.000000 
#Beginning of Data. Separated by tabs
#Fr	Tx	Ty	Tz	Rx	Ry	Rz	SF
[MASTER]
1 0.000000 0.000000 0.000000 0.001660 0.001660 0.001660 0.000000
2 0.000000 0.000000 0.000000 0.001660 0.001660 0.001660 0.000000
[root]
1 -68.691452 -64.199661 1001.491577 -91.434807 -7.772909 -96.722984 1005.895325
2 -70.837212 -64.105591 1010.735291 -91.473557 -7.783397 -96.371819 1015.240540
[chest]
1 -84.512650 -34.090519 0.000000 -5.410326 -0.013515 153.319122 91.129311
2 -84.512650 -34.090519 0.000000 -5.362936 -0.092455 155.724365 91.129311
[L_mid_tent01]
1 27.299480 22.177504 -249.917938 -17.247669 21.151663 -23.614559 252.380814
2 27.386074 22.127913 -250.474243 -15.888183 20.982038 -10.976446 252.936722
[R_mid_tent01]
1 23.228794 24.509907 226.238495 -159.906189 -4.246606 -21.363230 228.744751
2 23.228794 24.509907 226.238495 -157.300873 -14.402996 -17.146988 228.744751
[spine01]
1 -0.361383 -0.195265 0.000000 -0.419415 0.320593 11.076404 0.410763
2 -0.361383 -0.195265 0.000000 -0.398657 0.333018 10.952199 0.410763
[Bip01_Neck]
1 165.484543 71.581718 0.000119 175.896118 1.177290 24.871183 180.302734
2 165.484543 71.581718 0.000119 175.896118 1.177290 24.871181 180.302734
[L_humerus]
1 -13.983130 -135.272980 -120.471481 -91.172043 1.433345 -142.578705 181.680161
2 -13.983130 -135.272980 -120.471481 -92.648483 0.428747 -145.224884 181.680161
[R_humerus]
1 -13.983309 -135.273102 125.287651 102.796669 -2.902000 -149.274567 184.909012
2 -13.983309 -135.273102 125.287651 104.604309 -1.455256 -151.695251 184.909012
[weapon_bone]
1 235.964890 -300.705902 0.000000 0.000000 -89.951546 -128.212341 382.234833
2 235.964890 -300.705902 0.000000 0.000000 -89.951546 -128.212341 382.234833
[Bip01_Head]
1 211.031296 195.504288 -18.152597 10.082016 7.916201 -67.185524 288.245819
2 212.165756 194.243011 -17.007135 8.827077 7.178891 -65.619095 288.156036
[eye_left_bone]
1 -24.626970 125.451866 -64.772606 0.000000 -90.000000 -99.840431 143.318359
2 -24.626970 125.451866 -64.772606 0.000000 -90.000000 -99.840431 143.318359
[eye_right_bone]
1 -24.626970 125.451866 64.327362 0.000000 -89.960434 80.159386 143.117676
2 -24.626970 125.451866 64.327362 0.000000 -89.972023 80.159393 143.117676
[L_forearm]
1 322.776093 0.000000 -0.000119 0.000476 0.002298 -66.598846 322.776093
2 322.776093 0.000000 -0.000119 0.000417 0.002310 -69.511055 322.776093
[L_front_hand]
1 241.149185 -0.042021 -3.300071 -177.948212 -0.970367 -56.158272 241.171753
2 241.149185 -0.042021 -3.300071 -177.909348 -0.874204 -58.745823 241.171753
[L_weapon_bone]
1 156.183838 0.000000 0.000000 0.001660 0.001660 0.001660 156.183838
2 156.183838 0.000000 0.000000 0.001660 0.001660 0.001660 156.183838
[L_front_hand01_01]
1 86.095154 20.947098 -0.655860 0.367461 -0.473274 0.044655 88.609184
2 86.095154 20.947098 -0.655860 0.369241 -0.471700 -0.167569 88.609184
[L_front_hand02_01]
1 86.935165 -11.437475 24.513514 116.902184 -0.531932 -0.617441 91.046425
2 86.935165 -11.437475 24.513514 116.901459 -0.342493 -0.521137 91.046425
[L_front_hand03_01]
1 86.637497 -14.123976 -20.424902 -118.323463 -0.550423 -2.371630 90.126129
2 86.637497 -14.123976 -20.424902 -118.324379 -0.738134 -2.270569 90.126129
[L_front_hand01_02]
1 71.020905 -0.000179 0.000030 0.001534 0.001777 -8.378850 71.020905
2 71.020905 -0.000179 0.000030 0.001534 0.001777 -8.378850 71.020905
[L_front_hand02_02]
1 71.020927 -0.000119 0.000060 0.001534 0.001777 -8.378850 71.020927
2 71.020927 -0.000119 0.000060 0.001534 0.001777 -8.378850 71.020927
[L_front_hand03_02]
1 71.020905 -0.000060 0.000060 0.001534 0.001777 -8.378850 71.020905
2 71.020905 -0.000060 0.000060 0.001534 0.001777 -8.378850 71.020905
[R_forearm]
1 322.776428 -0.000060 0.000030 0.207856 -0.034204 -81.462494 322.776428
2 322.776428 -0.000060 0.000030 0.212198 -0.026638 -83.806755 322.776428
[R_front_hand]
1 238.847015 -0.006795 2.210259 -1.672657 -0.416886 -92.753014 238.857239
2 238.847015 -0.006795 2.210259 -1.654659 -0.487618 -95.234161 238.857239
[R_weapon_bone]
1 155.664093 0.002503 -0.000030 0.003487 0.001180 -90.988930 155.664078
2 155.664093 0.002503 -0.000030 0.003487 0.001180 -90.988930 155.664078
[R_front_hand01_01]
1 87.624611 14.231146 22.918642 -116.903824 0.258224 0.322985 91.683487
2 87.624611 14.231146 22.918642 -116.904358 0.406045 0.248077 91.683487
[R_front_hand02_01]
1 89.356956 14.367283 -19.491137 118.342209 -1.062284 2.335078 92.579636
2 89.356956 14.367283 -19.491137 118.343628 -1.207509 2.256799 92.579636
[R_front_hand03_01]
1 87.286232 -22.307278 -0.143439 -0.375575 -0.258498 0.600941 90.091743
2 87.286232 -22.307278 -0.143439 -0.376395 -0.257056 0.766407 90.091743
[R_front_hand01_02]
1 71.020905 0.000060 0.000119 0.001777 0.001534 8.377220 71.020905
2 71.020905 0.000060 0.000119 0.001777 0.001534 8.377220 71.020905
[R_front_hand02_02]
1 71.020844 -0.000030 -0.000119 0.001777 0.001534 8.377220 71.020836
2 71.020844 -0.000030 -0.000119 0.001777 0.001534 8.377220 71.020836
[R_front_hand03_02]
1 71.020905 0.000000 0.000030 0.001777 0.001534 8.377220 71.020905
2 71.020905 0.000000 0.000030 0.001777 0.001534 8.377220 71.020905
[null_rope01_connect]
1 328.732483 0.000000 -0.000238 -99.826958 -55.902054 -142.045990 328.732483
2 328.732483 0.000000 -0.000238 -108.441887 -57.206738 -146.038757 328.732483
[Rope1_Seg01]
1 0.000153 0.000000 0.000000 30.744421 -13.254387 -107.920364 0.000153
2 0.000148 0.000000 0.000000 42.600353 -23.170950 -115.469360 0.000148
[Rope1_Seg02]
1 139.999863 -0.000179 0.000000 -2.858176 -0.880796 4.918073 139.999863
2 139.999863 -0.000179 0.000000 -6.770850 9.410631 -1.441134 139.999863
[Rope1_Seg03]
1 139.999924 0.000060 -0.000060 1.602160 -4.458592 2.251055 139.999924
2 139.999924 0.000060 -0.000060 -6.787545 13.378794 -11.410427 139.999924
[Rope1_Seg04]
1 139.999924 -0.000060 -0.000119 -0.743732 -2.299356 3.846110 139.999924
2 139.999924 -0.000060 -0.000119 -29.292231 10.179060 18.000162 139.999924
[Rope1_Seg05]
1 139.999832 0.000119 -0.000060 -12.305091 14.309759 12.234818 139.999832
2 139.999832 0.000119 -0.000060 -3.180265 -11.230579 15.782742 139.999832
[Rope1_Seg06]
1 139.999954 0.000119 -0.000060 -5.969839 5.924187 7.409577 139.999954
2 139.999954 0.000119 -0.000060 -0.667524 -2.030509 3.689400 139.999954
[Rope1_Seg07]
1 139.999985 0.000060 0.000000 -2.146190 1.759193 3.209510 139.999985
2 139.999985 0.000060 0.000000 -0.309713 -1.105850 2.022696 139.999985
[Rope1_Seg09]
1 121.602913 0.000119 -0.000089 -89.790619 -1.359656 0.847385 121.602913
2 121.602913 0.000119 -0.000089 -89.073685 -1.357993 0.845912 121.602913
[L_mid_hand01]
1 103.859421 1.038730 8.195221 105.620987 -22.988335 -6.761933 104.187431
2 103.859421 1.038730 8.195221 105.485703 -21.785099 -6.401668 104.187431
[L_mid_hand02]
1 105.572853 -4.139662 -10.864139 -139.491974 20.327143 -21.528740 106.211075
2 105.572853 -4.139662 -10.864139 -139.145401 19.510233 -20.519331 106.211075
[L_mid_hand03]
1 104.641464 17.579376 -3.913581 -17.354424 7.254999 25.905664 106.179977
2 104.641464 17.579376 -3.913581 -17.499474 6.878122 24.703207 106.179977
[null_rope02_connect]
1 328.732849 0.000179 -0.000119 -155.101929 74.465576 -94.184250 328.732849
2 328.732849 0.000179 -0.000119 -130.961395 69.432106 -63.495945 328.732849
[Rope2_Seg01]
1 0.000095 0.000153 0.000000 47.485878 -39.874584 -64.197205 0.000180
2 0.000095 0.000153 0.000002 62.415882 -15.714165 -69.221390 0.000180
[Rope2_Seg02]
1 139.999741 -0.000060 -0.000119 6.934938 5.227160 -14.438137 139.999756
2 139.999741 -0.000060 -0.000119 9.407197 -2.272685 -8.327127 139.999756
[Rope2_Seg03]
1 140.000107 0.000030 0.000000 15.136888 0.740504 -18.334787 140.000107
2 140.000107 0.000030 0.000000 9.451590 -4.136172 -7.709705 140.000107
[Rope2_Seg04]
1 139.999802 0.000000 -0.000060 11.783574 -1.503016 -11.628952 139.999802
2 139.999802 0.000000 -0.000060 -5.945410 4.227949 4.258154 139.999802
[Rope2_Seg05]
1 139.999985 -0.000060 0.000119 -14.895103 13.333643 7.066689 139.999985
2 139.999985 -0.000060 0.000119 -11.214729 6.128414 8.371265 139.999985
[Rope2_Seg06]
1 139.999893 -0.000030 -0.000119 -18.823069 9.012214 10.423258 139.999893
2 139.999893 -0.000030 -0.000119 -4.896712 1.841353 3.869517 139.999893
[Rope2_Seg07]
1 139.999893 0.000060 -0.000060 -7.109733 2.304893 4.265622 139.999893
2 139.999893 0.000060 -0.000060 -3.104228 0.951208 2.534045 139.999893
[Rope2_Seg09]
1 121.338966 0.000089 -0.000060 33.791534 -1.359405 -0.845402 121.338966
2 121.338966 0.000089 -0.000060 32.893044 -1.373534 -0.826631 121.338966
[R_mid_hand01]
1 104.680779 11.144459 -10.335981 -44.070736 19.764444 21.986286 105.778534
2 104.680779 11.144459 -10.335981 -44.445736 18.711971 20.842907 105.778534
[R_mid_hand02]
1 104.070427 2.443552 8.231699 74.148849 -24.768806 7.320621 104.424065
2 104.070427 2.443552 8.231699 74.329613 -23.320326 6.870094 104.424065
[R_mid_hand03]
1 106.028137 -11.221827 -5.996406 -166.566208 8.416404 -28.789036 106.788818
2 106.028137 -11.221827 -5.996406 -166.351257 8.064514 -27.309353 106.788818
[spine02]
1 129.756927 0.001550 0.000119 -0.031994 -3.941140 -7.370806 129.756927
2 129.756927 0.001550 0.000119 -0.039922 -4.020765 -7.281430 129.756927
[spine03]
1 79.115601 0.000076 0.000010 1.907030 -2.965995 23.921795 79.115601
2 79.099243 0.002918 -0.159613 1.936415 -2.850872 23.922462 79.099411
[pelvis]
1 169.435242 0.051022 0.000000 0.001658 3.016138 -4.323351 169.435257
2 169.435242 0.051022 0.000000 -0.001041 3.001123 -4.259040 169.435257
[null_rope03_connect]
1 -1.257226 -2.466202 137.391083 -92.539307 -85.937889 166.784225 137.418976
2 -1.257226 -2.466202 137.391083 -93.361389 -86.257019 167.589355 137.418976
[null_rope04_connect]
1 -1.259640 -2.480268 -137.844437 -92.539307 -85.937889 166.784225 137.872513
2 -1.259640 -2.480268 -137.844437 -93.361389 -86.257019 167.589355 137.872513
[Rope3_Seg01]
1 0.000010 0.000038 -0.000153 -132.498489 11.178822 -87.617180 0.000158
2 0.000010 0.000037 -0.000148 -131.544037 10.002426 -82.223289 0.000153
[Rope3_Seg02]
1 139.999924 -0.000119 0.000060 0.059182 -2.792397 -3.374229 139.999924
2 139.999924 -0.000119 0.000060 0.080636 -1.881448 -2.398817 139.999924
[Rope3_Seg03]
1 139.999924 -0.000119 0.000119 0.110625 -3.137306 -3.796829 139.999924
2 139.999924 -0.000119 0.000119 0.105292 -2.207272 -2.810313 139.999924
[Rope3_Seg04]
1 139.999924 0.000119 0.000000 0.224723 -4.762072 -5.479477 139.999924
2 139.999924 0.000119 0.000000 0.229642 -4.380298 -5.309717 139.999924
[Rope3_Seg05]
1 139.999924 -0.000238 0.000060 0.767138 -6.415618 -7.184032 139.999924
2 139.999924 -0.000238 0.000060 0.404423 -3.892573 -4.853211 139.999924
[Rope3_Seg06]
1 139.999893 -0.000119 -0.000060 0.238086 0.793271 -0.140123 139.999893
2 139.999893 -0.000119 -0.000060 0.400252 4.753116 4.826102 139.999893
[Rope3_Seg07]
1 139.999771 0.000060 -0.000119 0.579232 8.183785 6.884786 139.999771
2 139.999771 0.000060 -0.000119 0.728674 5.454259 5.683238 139.999771
[Rope3_Seg08]
1 139.999985 -0.000060 0.000000 0.713445 5.006674 3.929657 139.999985
2 139.999985 -0.000060 0.000000 0.627624 2.462025 2.419517 139.999985
[Rope3_Seg09]
1 90.185997 -0.000179 -0.000060 89.795311 -1.358474 -0.848592 90.185997
2 90.185997 -0.000179 -0.000060 89.453667 -1.357517 -0.848052 90.185997
[R_rear_hand01]
1 103.366196 -6.073594 -10.757982 -159.744125 14.385758 -23.353998 104.101845
2 103.366196 -6.073594 -10.757982 -159.485779 13.998211 -22.280807 104.101845
[R_rear_hand02]
1 100.509819 12.039542 -7.992327 -36.034931 15.327271 22.984884 101.543350
2 100.509819 12.039542 -7.992327 -36.276123 14.669722 22.061468 101.543350
[R_rear_hand03]
1 101.539970 5.215704 5.435467 83.771187 -24.098902 6.416301 101.819031
2 101.539970 5.215704 5.435467 83.824615 -22.995543 6.282392 101.819031
[Rope4_Seg01]
1 0.000000 0.000076 -0.000076 45.230362 13.123090 -110.202888 0.000108
2 -0.000001 0.000071 -0.000078 44.878944 13.117505 -111.621552 0.000106
[Rope4_Seg02]
1 139.999985 0.000060 0.000119 0.998440 12.385779 14.881593 139.999985
2 139.999985 0.000060 0.000119 0.774304 8.233630 12.967123 139.999985
[Rope4_Seg03]
1 139.999924 0.000000 -0.000238 -1.128535 8.531416 10.187824 139.999924
2 139.999924 0.000000 -0.000238 -0.667732 6.850910 9.560114 139.999924
[Rope4_Seg04]
1 139.999985 0.000000 0.000119 -2.250741 7.031030 8.619171 139.999985
2 139.999985 0.000000 0.000119 -1.147790 6.373896 7.427968 139.999985
[Rope4_Seg05]
1 139.999802 -0.000060 -0.000119 -0.761661 1.136744 1.839054 139.999802
2 139.999802 -0.000060 -0.000119 -1.239592 -0.426012 2.538836 139.999802
[Rope4_Seg06]
1 139.999924 0.000000 0.000060 1.044925 -2.384265 -2.577879 139.999924
2 139.999924 0.000000 0.000060 -0.796468 -5.553901 -0.593508 139.999924
[Rope4_Seg07]
1 139.999802 0.000000 0.000000 2.706367 -6.840122 -7.768018 139.999802
2 139.999802 0.000000 0.000000 -0.498926 -6.222748 -0.996501 139.999802
[Rope4_Seg08]
1 139.999924 0.000000 0.000119 -0.400325 -4.798414 -4.829112 139.999924
2 139.999924 0.000000 0.000119 -1.887072 -3.206825 0.128714 139.999924
[Rope4_Seg09]
1 90.185791 0.000060 0.000060 -135.615601 2.225816 0.851109 90.185791
2 90.185791 0.000060 0.000060 -135.327011 2.227424 0.847563 90.185791
[L_rear_hand01]
1 101.696655 -8.392275 -7.654577 -36.242058 -14.765300 157.809067 102.329041
2 101.696655 -8.392275 -7.654577 -36.492836 -14.036903 158.829529 102.329041
[L_rear_hand02]
1 102.726799 -1.568258 5.773216 83.814362 23.151863 173.698151 102.900848
2 102.726799 -1.568258 5.773216 83.866943 21.929184 173.837814 102.900848
[L_rear_hand03]
1 104.552910 9.721220 -10.420293 -159.518845 -14.052428 -157.569275 105.519653
2 104.552910 9.721220 -10.420293 -159.238480 -13.618990 -158.752029 105.519653
